<?xml version="1.0" encoding="utf-8"?>
<svg viewBox="143.929 177.266 257.596 84.649" xmlns="http://www.w3.org/2000/svg">
  <defs>
    <clipPath id="id1">
      <path d="M 65.429688 203.683594 L 93.605469 203.683594 L 93.605469 224.683594 L 65.429688 224.683594 Z M 65.429688 203.683594 " clip-rule="nonzero"/>
    </clipPath>
    <clipPath id="id2">
      <path d="M 37.5 168.617188 L 121.496094 168.617188 L 121.496094 196.792969 L 37.5 196.792969 Z M 37.5 168.617188 " clip-rule="nonzero"/>
    </clipPath>
    <clipPath id="id3">
      <path d="M 65 140.6875 L 94 140.6875 L 94 162 L 65 162 Z M 65 140.6875 " clip-rule="nonzero"/>
    </clipPath>
  </defs>
  <g clip-path="url(#id1)" transform="matrix(1, 0, 0, 1, 106.429245, 36.578247)">
    <path fill="#ffffff" d="M 93.496094 203.683594 L 71.453125 209.195312 C 67.953125 210.070312 65.5 213.214844 65.5 216.820312 C 65.5 221.164062 69.019531 224.683594 73.359375 224.683594 L 93.496094 224.683594 L 93.496094 203.683594 " fill-opacity="1" fill-rule="nonzero"/>
  </g>
  <g clip-path="url(#id2)" transform="matrix(1, 0, 0, 1, 106.429245, 36.578247)">
    <path fill="#ffffff" d="M 93.496094 168.683594 L 45.363281 168.683594 C 41.019531 168.683594 37.5 172.203125 37.5 176.546875 L 37.5 196.683594 L 113.636719 196.683594 C 117.976562 196.683594 121.496094 193.164062 121.496094 188.824219 L 121.496094 168.683594 L 93.496094 168.683594 " fill-opacity="1" fill-rule="nonzero"/>
  </g>
  <g clip-path="url(#id3)" transform="matrix(1, 0, 0, 1, 106.429245, 36.578247)">
    <path fill="#ffffff" d="M 85.636719 140.6875 L 65.5 140.6875 L 65.5 161.683594 L 87.542969 156.175781 C 91.042969 155.300781 93.496094 152.15625 93.496094 148.546875 C 93.496094 144.207031 89.976562 140.6875 85.636719 140.6875 " fill-opacity="1" fill-rule="nonzero"/>
  </g>
  <g fill="#ffffff" fill-opacity="1" transform="matrix(1, 0, 0, 1, 106.429245, 36.578247)">
    <g transform="translate(166.304466, 225.07481)">
      <g>
        <path d="M 13.695312 -15.566406 L 13.695312 -19.046875 L 2.464844 -19.046875 L 2.464844 0 L 6.445312 0 L 6.445312 -7.800781 L 12.707031 -7.800781 L 12.707031 -11.242188 L 6.445312 -11.242188 L 6.445312 -15.566406 Z M 13.695312 -15.566406 "/>
      </g>
    </g>
  </g>
  <g fill="#ffffff" fill-opacity="1" transform="matrix(1, 0, 0, 1, 106.429245, 36.578247)">
    <g transform="translate(186.332532, 225.07481)">
      <g>
        <path d="M 9.515625 0.261719 C 13.707031 0.261719 16.988281 -1.871094 16.988281 -6.667969 L 16.988281 -19.046875 L 13.035156 -19.046875 L 13.035156 -7.210938 C 13.035156 -4.324219 11.480469 -3.230469 9.515625 -3.230469 C 7.566406 -3.230469 6.023438 -4.308594 6.023438 -7.210938 L 6.023438 -19.046875 L 2.070312 -19.046875 L 2.070312 -6.667969 C 2.070312 -1.871094 5.335938 0.261719 9.515625 0.261719 Z M 9.515625 0.261719 "/>
      </g>
    </g>
  </g>
  <g fill="#ffffff" fill-opacity="1" transform="matrix(1, 0, 0, 1, 106.429245, 36.578247)">
    <g transform="translate(210.814719, 225.07481)">
      <g>
        <path d="M 12.519531 0 L 17.199219 0 L 12.125 -7.394531 C 12.585938 -7.527344 12.980469 -7.683594 13.339844 -7.882812 C 15.261719 -8.894531 16.039062 -10.792969 16.039062 -13.179688 C 16.039062 -15.445312 15.277344 -17.253906 13.417969 -18.242188 C 12.429688 -18.742188 11.148438 -19.046875 8.726562 -19.046875 L 2.464844 -19.046875 L 2.464844 0 L 6.417969 0 L 6.417969 -7.023438 L 8.09375 -7.023438 Z M 6.417969 -15.738281 L 8.171875 -15.738281 C 9.699219 -15.738281 10.558594 -15.644531 11.164062 -15.183594 C 11.730469 -14.734375 12.058594 -13.996094 12.058594 -12.929688 C 12.058594 -11.808594 11.730469 -11.058594 11.085938 -10.609375 C 10.503906 -10.203125 9.675781 -10.136719 8.171875 -10.136719 L 6.417969 -10.136719 Z M 6.417969 -15.738281 "/>
      </g>
    </g>
  </g>
  <g fill="#ffffff" fill-opacity="1" transform="matrix(1, 0, 0, 1, 106.429245, 36.578247)">
    <g transform="translate(234.150439, 225.07481)">
      <g>
        <path d="M 15.210938 0 L 19.257812 0 L 12.246094 -19.046875 L 7.40625 -19.046875 L 0.394531 0 L 4.441406 0 L 5.824219 -3.925781 L 13.824219 -3.925781 Z M 6.984375 -7.234375 L 9.832031 -15.316406 L 12.664062 -7.234375 Z M 6.984375 -7.234375 "/>
      </g>
    </g>
  </g>
  <g fill="#ffffff" fill-opacity="1" transform="matrix(1, 0, 0, 1, 106.429245, 36.578247)">
    <g transform="translate(141.912168, 193.674772)">
      <g>
        <path d="M 17.890625 0 L 11.59375 -9.34375 L 8.4375 -5.84375 L 8.4375 0 L 2.375 0 L 2.375 -23.796875 L 8.4375 -23.796875 L 8.4375 -13.5 L 17.546875 -23.796875 L 24.546875 -23.796875 L 15.703125 -13.9375 L 25.125 0 Z M 17.890625 0 "/>
      </g>
    </g>
  </g>
  <g fill="#ffffff" fill-opacity="1" transform="matrix(1, 0, 0, 1, 106.429245, 36.578247)">
    <g transform="translate(168.463257, 193.674772)">
      <g>
        <path d="M 21.015625 -19.046875 L 8.4375 -19.046875 L 8.4375 -14.3125 L 19.78125 -14.3125 L 19.78125 -9.546875 L 8.4375 -9.546875 L 8.4375 -4.765625 L 21.390625 -4.765625 L 21.390625 0 L 2.375 0 L 2.375 -23.796875 L 21.015625 -23.796875 Z M 21.015625 -19.046875 "/>
      </g>
    </g>
  </g>
  <g fill="#ffffff" fill-opacity="1" transform="matrix(1, 0, 0, 1, 106.429245, 36.578247)">
    <g transform="translate(192.532627, 193.674772)">
      <g>
        <path d="M 24.34375 0 L 19 0 L 8.0625 -14.65625 L 8.0625 0 L 2.375 0 L 2.375 -23.796875 L 7.71875 -23.796875 L 18.703125 -9.109375 L 18.703125 -23.796875 L 24.34375 -23.796875 Z M 24.34375 0 "/>
      </g>
    </g>
  </g>
  <g fill="#ffffff" fill-opacity="1" transform="matrix(1, 0, 0, 1, 106.429245, 36.578247)">
    <g transform="translate(220.409558, 193.674772)">
      <g>
        <path d="M 21.015625 -19.046875 L 8.4375 -19.046875 L 8.4375 -14.3125 L 19.78125 -14.3125 L 19.78125 -9.546875 L 8.4375 -9.546875 L 8.4375 -4.765625 L 21.390625 -4.765625 L 21.390625 0 L 2.375 0 L 2.375 -23.796875 L 21.015625 -23.796875 Z M 21.015625 -19.046875 "/>
      </g>
    </g>
  </g>
  <g fill="#ffffff" fill-opacity="1" transform="matrix(1, 0, 0, 1, 106.429245, 36.578247)">
    <g transform="translate(244.47893, 193.674772)">
      <g>
        <path d="M 14.65625 -7.6875 L 14.65625 0 L 8.640625 0 L 8.640625 -7.515625 L -0.171875 -23.796875 L 5.875 -23.796875 L 11.625 -13.4375 L 17.234375 -23.796875 L 23.296875 -23.796875 Z M 14.65625 -7.6875 "/>
      </g>
    </g>
  </g>
  <g fill="#ffffff" fill-opacity="1" transform="matrix(1, 0, 0, 1, 106.429245, 36.578247)">
    <g transform="translate(268.752282, 193.674772)">
      <g>
        <path d="M 18.1875 -4.390625 L 7.78125 -4.390625 L 6.046875 0 L -0.171875 0 L 10.09375 -23.796875 L 16.3125 -23.796875 L 26.34375 0 L 19.890625 0 Z M 16.421875 -8.96875 L 13.015625 -17.78125 L 9.546875 -8.96875 Z M 16.421875 -8.96875 "/>
      </g>
    </g>
  </g>
</svg>