<?xml version="1.0" encoding="utf-8"?>
<svg viewBox="116.902 184.474 83.996 83.996" xmlns="http://www.w3.org/2000/svg">
  <defs>
    <clipPath id="id1">
      <path d="M 80.882812 190.378906 L 109 190.378906 L 109 211.378906 L 80.882812 211.378906 Z M 80.882812 190.378906 " clip-rule="nonzero"/>
    </clipPath>
    <clipPath id="id2">
      <path d="M 52.949219 155.3125 L 136.945312 155.3125 L 136.945312 183.484375 L 52.949219 183.484375 Z M 52.949219 155.3125 " clip-rule="nonzero"/>
    </clipPath>
    <clipPath id="id3">
      <path d="M 80 127.382812 L 109 127.382812 L 109 149 L 80 149 Z M 80 127.382812 " clip-rule="nonzero"/>
    </clipPath>
  </defs>
  <g clip-path="url(#id1)" transform="matrix(1, 0, 0, 1, 63.952946, 57.090763)">
    <path fill="#ffffff" d="M 108.949219 190.378906 L 86.902344 195.890625 C 83.402344 196.765625 80.949219 199.910156 80.949219 203.515625 C 80.949219 207.859375 84.46875 211.378906 88.808594 211.378906 L 108.949219 211.378906 L 108.949219 190.378906 " fill-opacity="1" fill-rule="nonzero"/>
  </g>
  <g clip-path="url(#id2)" transform="matrix(1, 0, 0, 1, 63.952946, 57.090763)">
    <path fill="#ffffff" d="M 108.949219 155.378906 L 60.8125 155.378906 C 56.46875 155.378906 52.949219 158.898438 52.949219 163.242188 L 52.949219 183.378906 L 129.085938 183.378906 C 133.425781 183.378906 136.945312 179.859375 136.945312 175.515625 L 136.945312 155.378906 L 108.949219 155.378906 " fill-opacity="1" fill-rule="nonzero"/>
  </g>
  <g clip-path="url(#id3)" transform="matrix(1, 0, 0, 1, 63.952946, 57.090763)">
    <path fill="#ffffff" d="M 101.085938 127.378906 L 80.949219 127.378906 L 80.949219 148.378906 L 102.992188 142.871094 C 106.492188 141.992188 108.949219 138.851562 108.949219 135.242188 C 108.949219 130.902344 105.429688 127.378906 101.085938 127.378906 " fill-opacity="1" fill-rule="nonzero"/>
  </g>
</svg>